<svg width="30" height="30" viewBox="0 0 30 30" fill="none" xmlns="http://www.w3.org/2000/svg">
<g id="circum:twitter">
<path id="Vector" d="M24.8912 6.65249C25.127 6.65446 25.3578 6.72088 25.5585 6.84458C25.7592 6.96828 25.9223 7.14453 26.0301 7.35425C26.1378 7.56398 26.1862 7.79918 26.1699 8.0344C26.1535 8.26963 26.0732 8.49591 25.9375 8.68874L24.635 10.54C24.555 16.8975 22.4287 21.2137 18.315 23.37C16.3547 24.3442 14.1887 24.8325 12 24.7937C9.29358 24.856 6.61915 24.1986 4.24999 22.8887C4.09062 22.7816 3.96744 22.6287 3.89671 22.4502C3.82597 22.2717 3.81099 22.0759 3.85374 21.8887C3.89377 21.6988 3.99046 21.5254 4.13105 21.3915C4.27165 21.2576 4.44953 21.1695 4.64124 21.1387C6.2328 20.9165 7.80005 20.5457 9.32249 20.0312C2.49999 16.875 3.98749 9.77999 4.63749 7.60124C4.70086 7.38493 4.82001 7.1891 4.98298 7.03339C5.14595 6.87769 5.34701 6.76759 5.56598 6.71414C5.78495 6.6607 6.01412 6.66579 6.2305 6.72891C6.44688 6.79203 6.64285 6.91095 6.79874 7.07374C8.79579 9.13152 11.4437 10.4345 14.2925 10.7612C14.2419 9.99566 14.3603 9.22833 14.6391 8.51356C14.918 7.79879 15.3506 7.15405 15.9062 6.62499C16.8689 5.71145 18.1467 5.20424 19.4738 5.20889C20.8009 5.21355 22.0751 5.72971 23.0312 6.64999L24.8912 6.65249ZM5.65124 22.2425C7.97874 23.3325 13.4337 24.5162 17.735 22.2625C21.4287 20.3262 23.33 16.3475 23.3862 10.4362C23.3888 10.2408 23.4507 10.0507 23.5637 9.89124L24.915 7.96874L24.8637 7.90249C24.2162 7.89374 23.5775 7.88499 22.9262 7.90249C22.6723 7.89667 22.4292 7.79845 22.2425 7.62624C21.5229 6.89685 20.546 6.47883 19.5215 6.462C18.4971 6.44517 17.5069 6.83088 16.7637 7.53624C16.2864 7.99019 15.9297 8.55585 15.7256 9.18216C15.5216 9.80848 15.4767 10.4757 15.595 11.1237C15.6168 11.2445 15.6107 11.3685 15.5774 11.4866C15.544 11.6046 15.4842 11.7135 15.4025 11.805C15.3242 11.8973 15.2244 11.9689 15.112 12.0136C14.9995 12.0583 14.8778 12.0746 14.7575 12.0612C11.399 11.8269 8.24549 10.3601 5.90249 7.94249C5.06499 10.54 4.00249 16.81 10.7387 19.2737C10.8805 19.3246 11.0048 19.4149 11.0969 19.5341C11.189 19.6532 11.2452 19.7962 11.2587 19.9462C11.274 20.094 11.2468 20.243 11.1804 20.3758C11.114 20.5086 11.0111 20.6198 10.8837 20.6962C9.23766 21.4989 7.46924 22.0215 5.65124 22.2425Z" fill="#FAFAFA"/>
</g>
</svg>
