<svg width="70" height="70" viewBox="0 0 70 70" fill="none" xmlns="http://www.w3.org/2000/svg">
<g id="dashicons:awards">
<path id="Vector" d="M15.6096 18.0605L17.4996 26.1105L15.6096 34.1255L22.6446 38.4655L26.9496 45.5005L34.9996 43.6105L43.0496 45.5005L47.3546 38.4655L54.3896 34.1255L52.4996 26.1105L54.3896 18.0605L47.3896 13.7205L43.0496 6.68555L34.9996 8.61055L26.9846 6.72055L22.6096 13.7205L15.6096 18.0605ZM35.0346 40.2505C31.3216 40.2505 27.7606 38.7756 25.1351 36.15C22.5096 33.5245 21.0346 29.9636 21.0346 26.2505C21.0346 22.5375 22.5096 18.9766 25.1351 16.3511C27.7606 13.7255 31.3216 12.2505 35.0346 12.2505C42.7346 12.2505 48.9996 18.5155 48.9996 26.2155C48.9996 33.9855 42.7346 40.2505 35.0346 40.2505ZM34.9646 36.7505C29.1546 36.7505 24.4996 32.0605 24.4996 26.2505C24.4996 20.4755 29.1546 15.7505 34.9646 15.7505C40.7746 15.7505 45.4996 20.4755 45.4996 26.2505C45.4996 32.0605 40.7746 36.7505 34.9646 36.7505ZM48.4046 40.6005L43.9246 48.4405L36.6446 46.7955L45.4996 67.2006L50.3996 59.5005H59.1496L48.4046 40.6005ZM21.4546 40.8455L25.8296 48.7205L33.2846 46.9355L24.4996 67.2006L19.5996 59.5005H10.8496L21.4546 40.8455Z" fill="#0FA958"/>
</g>
</svg>