<svg width="20" height="25" viewBox="0 0 20 25" fill="none" xmlns="http://www.w3.org/2000/svg">
<path id="Vector" d="M19.2352 24.2327C19.7249 23.8888 20 23.4225 20 22.9363C20 22.4501 19.7249 21.9837 19.2352 21.6399L6.30514 12.5633L19.2352 3.48672C19.711 3.14089 19.9743 2.67771 19.9684 2.19693C19.9624 1.71615 19.6877 1.25625 19.2034 0.916277C18.7191 0.576302 18.0639 0.383461 17.379 0.379284C16.6941 0.375105 16.0343 0.559927 15.5416 0.893942L0.764797 11.2669C0.275098 11.6108 0 12.0771 0 12.5633C0 13.0495 0.275098 13.5158 0.764797 13.8597L15.5416 24.2327C16.0315 24.5764 16.6958 24.7695 17.3884 24.7695C18.0811 24.7695 18.7454 24.5764 19.2352 24.2327Z" fill="#0FA958"/>
</svg>
