<svg width="30" height="31" viewBox="0 0 30 31" fill="none" xmlns="http://www.w3.org/2000/svg">
<g id="ep:arrow-up-bold">
<path id="Vector" d="M4.49624 3.04781C4.00654 3.38617 3.73144 3.84502 3.73144 4.32345C3.73144 4.80189 4.00654 5.26074 4.49624 5.5991L17.4263 14.5304L4.49624 23.4618C4.02042 23.8021 3.75713 24.2578 3.76308 24.7309C3.76903 25.204 4.04375 25.6565 4.52806 25.9911C5.01237 26.3256 5.66753 26.5154 6.35242 26.5195C7.03731 26.5236 7.69714 26.3417 8.1898 26.013L22.9666 15.8061C23.4563 15.4677 23.7314 15.0089 23.7314 14.5304C23.7314 14.052 23.4563 13.5931 22.9666 13.2548L8.1898 3.04781C7.69995 2.70955 7.03566 2.51953 6.34302 2.51953C5.65037 2.51953 4.98609 2.70955 4.49624 3.04781Z" fill="#0FA958"/>
</g>
</svg>
