<svg width="24" height="20" viewBox="0 0 24 20" fill="none" xmlns="http://www.w3.org/2000/svg">
<g id="profile-">
<g id="Group">
<path id="Vector" d="M3.87024 15C3.87024 14.116 4.278 13.2681 5.00381 12.643C5.72962 12.0179 6.71403 11.6667 7.74049 11.6667H15.481C16.5074 11.6667 17.4918 12.0179 18.2177 12.643C18.9435 13.2681 19.3512 14.116 19.3512 15C19.3512 15.442 19.1473 15.866 18.7844 16.1785C18.4215 16.4911 17.9293 16.6667 17.4161 16.6667H5.80536C5.29214 16.6667 4.79993 16.4911 4.43702 16.1785C4.07412 15.866 3.87024 15.442 3.87024 15Z" stroke="#FAFAFA" stroke-width="1.25" stroke-linejoin="round"/>
<path id="Vector_2" d="M11.6107 8.33334C13.2138 8.33334 14.5134 7.21406 14.5134 5.83334C14.5134 4.45263 13.2138 3.33334 11.6107 3.33334C10.0076 3.33334 8.70804 4.45263 8.70804 5.83334C8.70804 7.21406 10.0076 8.33334 11.6107 8.33334Z" stroke="#FAFAFA" stroke-width="1.25"/>
</g>
</g>
</svg>
